<svg fill="none" height="24" viewBox="0 0 24 24" width="24" xmlns="http://www.w3.org/2000/svg"><g clip-rule="evenodd" fill="#323232" fill-rule="evenodd"><path d="m6 8c0-3.31371 2.68629-6 6-6 3.3137 0 6 2.68629 6 6 0 3.3137-2.6863 6-6 6-3.31371 0-6-2.6863-6-6z"/><path d="m5.43094 16.9025c1.62493-.6812 3.79236-.9025 6.56906-.9025 2.771 0 4.9351.2204 6.5586.8981 1.7426.7274 2.8122 1.9632 3.3824 3.7606.2118.668-.2892 1.3413-.9818 1.3413h-17.92461c-.68977 0-1.1878-.6703-.97769-1.3346.56847-1.7973 1.63429-3.0336 3.37404-3.7629z"/></g></svg>